%
M48
M72
T01C0.0200
T02C0.0320
T03C0.0394
T04C0.0400
T05C0.0472
%
T01
X2850Y3133
X5350Y3633
X7850Y2133
X10850Y633
X10350Y4133
X9850Y4633
X9850Y6133
X10850Y7133
X12350Y8633
X9850Y9633
X8850Y9133
X5350Y10133
X2850Y10633
X5850Y11633
X8350Y11133
X7850Y13633
X8350Y14633
X5350Y15633
X4850Y14133
X4350Y14133
X2850Y13133
X8350Y16633
X13350Y16133
X16850Y6633
X18850Y5633
X22350Y6133
X5350Y6633
X2850Y5633
T02
X1350Y1133
X1350Y2133
X1350Y3133
X1350Y4133
X1350Y5133
X1350Y6133
X1350Y7133
X1350Y8133
X1350Y9133
X4350Y9133
X4350Y8133
X4350Y7133
X4350Y6133
X4350Y5133
X4350Y4133
X4350Y3133
X4350Y2133
X4350Y1133
T03
X6350Y3133
X7350Y3133
X7350Y4133
X6350Y4133
X6350Y5133
X7350Y5133
X7350Y6133
X6350Y6133
X6350Y7133
X7350Y7133
X7350Y8133
X6350Y8133
X6350Y9133
X7350Y9133
X7350Y10133
X6350Y10133
X6350Y11133
X7350Y11133
X7350Y12133
X6350Y12133
X6350Y13133
X7350Y13133
X7350Y14133
X6350Y14133
X6350Y15133
X7350Y15133
X3850Y15633
X2850Y15633
X1850Y15633
X2350Y12133
X3350Y12133
X10850Y1633
X11850Y1633
X14850Y1633
X15850Y1633
X18850Y1633
X19850Y1633
X22850Y1633
X23850Y1633
X26850Y1633
X27850Y1633
X30850Y1633
X31850Y1633
X34350Y1133
X34350Y2133
X34350Y3633
X34350Y4633
T04
X34350Y6633
X34350Y7633
X34350Y8633
X34350Y9633
X34350Y10633
X34350Y11633
X34350Y12633
X34350Y13633
X34350Y14633
X34350Y15633
T05
X29350Y14133
X25350Y14133
X21350Y14133
X17350Y14133
X13350Y14133
X9350Y14133
X9350Y10133
X13350Y10133
X17350Y10133
X21350Y10133
X25350Y10133
X29350Y10133
X29350Y5133
X29350Y3133
X25350Y3133
X25350Y5133
X21350Y5133
X21350Y3133
X17350Y3133
X17350Y5133
X13350Y5133
X13350Y3133
X9350Y3133
X9350Y5133
M30
