G75*
G70*
%OFA0B0*%
%FSLAX24Y24*%
%IPPOS*%
%LPD*%
%AMOC8*
5,1,8,0,0,1.08239X$1,22.5*
%
%ADD10C,0.0640*%
%ADD11C,0.0714*%
%ADD12R,0.0740X0.0740*%
%ADD13C,0.0740*%
%ADD14C,0.0792*%
%ADD15C,0.0720*%
D10*
X001070Y001133D02*
X001630Y001133D01*
X001630Y002133D02*
X001070Y002133D01*
X001070Y003133D02*
X001630Y003133D01*
X001630Y004133D02*
X001070Y004133D01*
X001070Y005133D02*
X001630Y005133D01*
X001630Y006133D02*
X001070Y006133D01*
X001070Y007133D02*
X001630Y007133D01*
X001630Y008133D02*
X001070Y008133D01*
X001070Y009133D02*
X001630Y009133D01*
X004070Y009133D02*
X004630Y009133D01*
X004630Y008133D02*
X004070Y008133D01*
X004070Y007133D02*
X004630Y007133D01*
X004630Y006133D02*
X004070Y006133D01*
X004070Y005133D02*
X004630Y005133D01*
X004630Y004133D02*
X004070Y004133D01*
X004070Y003133D02*
X004630Y003133D01*
X004630Y002133D02*
X004070Y002133D01*
X004070Y001133D02*
X004630Y001133D01*
D11*
X010850Y001316D02*
X010850Y001950D01*
X011850Y001950D02*
X011850Y001316D01*
X014850Y001316D02*
X014850Y001950D01*
X015850Y001950D02*
X015850Y001316D01*
X018850Y001316D02*
X018850Y001950D01*
X019850Y001950D02*
X019850Y001316D01*
X022850Y001316D02*
X022850Y001950D01*
X023850Y001950D02*
X023850Y001316D01*
X026850Y001316D02*
X026850Y001950D01*
X027850Y001950D02*
X027850Y001316D01*
X030850Y001316D02*
X030850Y001950D01*
X031850Y001950D02*
X031850Y001316D01*
X034033Y001133D02*
X034667Y001133D01*
X034667Y002133D02*
X034033Y002133D01*
X034033Y003633D02*
X034667Y003633D01*
X034667Y004633D02*
X034033Y004633D01*
X003850Y015316D02*
X003850Y015950D01*
X002850Y015950D02*
X002850Y015316D01*
X001850Y015316D02*
X001850Y015950D01*
X002350Y012450D02*
X002350Y011816D01*
X003350Y011816D02*
X003350Y012450D01*
D12*
X007350Y003133D03*
D13*
X006350Y003133D03*
X006350Y004133D03*
X007350Y004133D03*
X007350Y005133D03*
X006350Y005133D03*
X006350Y006133D03*
X007350Y006133D03*
X007350Y007133D03*
X006350Y007133D03*
X006350Y008133D03*
X007350Y008133D03*
X007350Y009133D03*
X006350Y009133D03*
X006350Y010133D03*
X007350Y010133D03*
X007350Y011133D03*
X006350Y011133D03*
X006350Y012133D03*
X007350Y012133D03*
X007350Y013133D03*
X006350Y013133D03*
X006350Y014133D03*
X007350Y014133D03*
X007350Y015133D03*
X006350Y015133D03*
D14*
X009350Y014133D03*
X013350Y014133D03*
X017350Y014133D03*
X021350Y014133D03*
X025350Y014133D03*
X029350Y014133D03*
X029350Y010133D03*
X025350Y010133D03*
X021350Y010133D03*
X017350Y010133D03*
X013350Y010133D03*
X009350Y010133D03*
X009350Y005133D03*
X009350Y003133D03*
X013350Y003133D03*
X013350Y005133D03*
X017350Y005133D03*
X017350Y003133D03*
X021350Y003133D03*
X021350Y005133D03*
X025350Y005133D03*
X025350Y003133D03*
X029350Y003133D03*
X029350Y005133D03*
D15*
X034030Y006633D02*
X034670Y006633D01*
X034670Y007633D02*
X034030Y007633D01*
X034030Y008633D02*
X034670Y008633D01*
X034670Y009633D02*
X034030Y009633D01*
X034030Y010633D02*
X034670Y010633D01*
X034670Y011633D02*
X034030Y011633D01*
X034030Y012633D02*
X034670Y012633D01*
X034670Y013633D02*
X034030Y013633D01*
X034030Y014633D02*
X034670Y014633D01*
X034670Y015633D02*
X034030Y015633D01*
M02*
