G75*
G70*
%OFA0B0*%
%FSLAX24Y24*%
%IPPOS*%
%LPD*%
%AMOC8*
5,1,8,0,0,1.08239X$1,22.5*
%
%ADD10C,0.0060*%
D10*
X005782Y000663D02*
X006209Y000663D01*
X005995Y000663D02*
X005995Y001304D01*
X006209Y001090D01*
X006424Y000770D02*
X006424Y000663D01*
X006531Y000663D01*
X006531Y000770D01*
X006424Y000770D01*
X006748Y000663D02*
X007175Y000663D01*
X006962Y000663D02*
X006962Y001304D01*
X007175Y001090D01*
X007393Y000877D02*
X007393Y001304D01*
X007820Y001304D02*
X007820Y000877D01*
X007606Y000663D01*
X007393Y000877D01*
X015936Y008557D02*
X016042Y008450D01*
X016149Y008450D01*
X015936Y008557D02*
X015936Y009090D01*
X016363Y009090D02*
X016363Y008770D01*
X016256Y008663D01*
X015936Y008663D01*
X016580Y008663D02*
X016580Y008984D01*
X016687Y009090D01*
X016900Y009090D01*
X016900Y008877D02*
X016580Y008877D01*
X016580Y008663D02*
X016900Y008663D01*
X017007Y008770D01*
X016900Y008877D01*
X017223Y008663D02*
X017437Y008663D01*
X017330Y008663D02*
X017330Y009304D01*
X017437Y009304D01*
X017654Y008984D02*
X017654Y008877D01*
X018081Y008877D01*
X018081Y008984D02*
X017975Y009090D01*
X017761Y009090D01*
X017654Y008984D01*
X018081Y008984D02*
X018081Y008770D01*
X017975Y008663D01*
X017761Y008663D01*
X018299Y008663D02*
X018512Y008877D01*
X018406Y008877D02*
X018726Y008877D01*
X018726Y008663D02*
X018726Y009304D01*
X018406Y009304D01*
X018299Y009197D01*
X018299Y008984D01*
X018406Y008877D01*
X020231Y008663D02*
X020445Y008663D01*
X020338Y008663D02*
X020338Y009090D01*
X020445Y009090D01*
X020338Y009304D02*
X020338Y009411D01*
X020662Y009197D02*
X020662Y008984D01*
X020769Y008877D01*
X021089Y008877D01*
X021089Y008663D02*
X021089Y009304D01*
X020769Y009304D01*
X020662Y009197D01*
X021951Y009090D02*
X021951Y008557D01*
X022058Y008450D01*
X022165Y008450D01*
X022272Y008663D02*
X021951Y008663D01*
X022272Y008663D02*
X022378Y008770D01*
X022378Y009090D01*
X022595Y009090D02*
X022702Y009090D01*
X022916Y008877D01*
X022916Y009090D02*
X022916Y008663D01*
X023132Y009090D02*
X023239Y009090D01*
X023453Y008877D01*
X023453Y009090D02*
X023453Y008663D01*
X023670Y008877D02*
X024097Y008877D01*
X024097Y008770D02*
X024097Y008984D01*
X023990Y009090D01*
X023777Y009090D01*
X023670Y008984D01*
X023670Y008877D01*
X023777Y008663D02*
X023990Y008663D01*
X024097Y008770D01*
X024315Y008770D02*
X024315Y008984D01*
X024422Y009090D01*
X024742Y009090D01*
X024742Y009304D02*
X024742Y008663D01*
X024422Y008663D01*
X024315Y008770D01*
X024959Y008770D02*
X024959Y008984D01*
X025066Y009090D01*
X025386Y009090D01*
X025386Y008450D01*
X025386Y008663D02*
X025066Y008663D01*
X024959Y008770D01*
X025604Y008770D02*
X025711Y008877D01*
X025924Y008877D01*
X026031Y008984D01*
X025924Y009090D01*
X025604Y009090D01*
X026248Y008984D02*
X026248Y008663D01*
X026569Y008663D01*
X026675Y008770D01*
X026569Y008877D01*
X026248Y008877D01*
X026248Y008984D02*
X026355Y009090D01*
X026569Y009090D01*
X026893Y008984D02*
X026893Y009197D01*
X027000Y009304D01*
X027320Y009304D01*
X027320Y008663D01*
X027320Y008877D02*
X027000Y008877D01*
X026893Y008984D01*
X027106Y008877D02*
X026893Y008663D01*
X026031Y008663D02*
X025711Y008663D01*
X025604Y008770D01*
X015074Y008663D02*
X014753Y008663D01*
X014647Y008770D01*
X014647Y008877D01*
X014753Y008984D01*
X014647Y009090D01*
X014647Y009197D01*
X014753Y009304D01*
X015074Y009304D01*
X015074Y008663D01*
X014429Y008770D02*
X014322Y008663D01*
X014109Y008663D01*
X014002Y008770D01*
X014002Y008984D01*
X014109Y009090D01*
X014322Y009090D01*
X014429Y008984D01*
X014429Y008770D01*
X014753Y008984D02*
X015074Y008984D01*
X013784Y008770D02*
X013678Y008877D01*
X013357Y008877D01*
X013357Y008984D02*
X013357Y008663D01*
X013678Y008663D01*
X013784Y008770D01*
X013678Y009090D02*
X013464Y009090D01*
X013357Y008984D01*
X013140Y009090D02*
X013140Y008663D01*
X013140Y008877D02*
X012926Y009090D01*
X012820Y009090D01*
X012603Y008984D02*
X012496Y009090D01*
X012176Y009090D01*
X012176Y009304D02*
X012176Y008663D01*
X012496Y008663D01*
X012603Y008770D01*
X012603Y008984D01*
X017379Y015750D02*
X017272Y015857D01*
X017272Y016390D01*
X017592Y016390D01*
X017699Y016284D01*
X017699Y016070D01*
X017592Y015963D01*
X017272Y015963D01*
X017379Y015750D02*
X017486Y015750D01*
X017915Y015963D02*
X018021Y015963D01*
X018021Y016070D01*
X017915Y016070D01*
X017915Y015963D01*
X018239Y016070D02*
X018239Y016390D01*
X018239Y016070D02*
X018346Y015963D01*
X018452Y016070D01*
X018559Y015963D01*
X018666Y016070D01*
X018666Y016390D01*
X018884Y016390D02*
X018884Y016070D01*
X018990Y015963D01*
X019097Y016070D01*
X019204Y015963D01*
X019311Y016070D01*
X019311Y016390D01*
X019528Y016390D02*
X019528Y016070D01*
X019635Y015963D01*
X019742Y016070D01*
X019848Y015963D01*
X019955Y016070D01*
X019955Y016390D01*
X021460Y015963D02*
X021674Y015963D01*
X021567Y015963D02*
X021567Y016604D01*
X021674Y016604D01*
X021891Y016284D02*
X021891Y016177D01*
X022318Y016177D01*
X022318Y016070D02*
X022318Y016284D01*
X022212Y016390D01*
X021998Y016390D01*
X021891Y016284D01*
X021998Y015963D02*
X022212Y015963D01*
X022318Y016070D01*
X022536Y016070D02*
X022536Y016284D01*
X022643Y016390D01*
X022963Y016390D01*
X023181Y016284D02*
X023181Y016070D01*
X023287Y015963D01*
X023501Y015963D01*
X023608Y016070D01*
X023608Y016284D01*
X023501Y016390D01*
X023287Y016390D01*
X023181Y016284D01*
X022963Y016604D02*
X022963Y015963D01*
X022643Y015963D01*
X022536Y016070D01*
X023825Y015963D02*
X024252Y015963D01*
X024252Y016070D01*
X023825Y016497D01*
X023825Y016604D01*
X024252Y016604D01*
X025114Y016390D02*
X025434Y016390D01*
X025541Y016284D01*
X025541Y016070D01*
X025434Y015963D01*
X025114Y015963D01*
X025114Y015857D02*
X025114Y016390D01*
X025759Y016390D02*
X025759Y015963D01*
X026079Y015963D01*
X026186Y016070D01*
X026186Y016390D01*
X026403Y016284D02*
X026403Y016070D01*
X026510Y015963D01*
X026724Y015963D01*
X026830Y016070D01*
X026830Y016284D01*
X026724Y016390D01*
X026510Y016390D01*
X026403Y016284D01*
X027048Y016497D02*
X027155Y016604D01*
X027475Y016604D01*
X027475Y015963D01*
X027155Y015963D01*
X027048Y016070D01*
X027048Y016497D01*
X028337Y016497D02*
X028337Y016390D01*
X028764Y015963D01*
X028337Y015963D01*
X028981Y015963D02*
X029409Y015963D01*
X029195Y015963D02*
X029195Y016604D01*
X029409Y016390D01*
X029626Y016497D02*
X029626Y016070D01*
X029733Y015963D01*
X029946Y015963D01*
X030053Y016070D01*
X029626Y016497D01*
X029733Y016604D01*
X029946Y016604D01*
X030053Y016497D01*
X030053Y016070D01*
X030271Y015963D02*
X030698Y015963D01*
X030271Y016390D01*
X030271Y016497D01*
X030377Y016604D01*
X030591Y016604D01*
X030698Y016497D01*
X030914Y016284D02*
X030914Y015857D01*
X030914Y016177D02*
X031127Y016177D01*
X031127Y016284D02*
X030914Y016284D01*
X028764Y016497D02*
X028657Y016604D01*
X028444Y016604D01*
X028337Y016497D01*
X025328Y015750D02*
X025221Y015750D01*
X025114Y015857D01*
X017055Y016070D02*
X016948Y015963D01*
X016734Y015963D01*
X016628Y016177D02*
X017055Y016177D01*
X017055Y016070D02*
X017055Y016284D01*
X016948Y016390D01*
X016734Y016390D01*
X016628Y016284D01*
X016628Y016177D01*
X016410Y015963D02*
X016197Y015963D01*
X016303Y015963D02*
X016303Y016604D01*
X016410Y016604D01*
X015980Y016604D02*
X015980Y015963D01*
X015660Y015963D01*
X015553Y016070D01*
X015553Y016284D01*
X015660Y016390D01*
X015980Y016390D01*
X015336Y016284D02*
X015336Y016070D01*
X015229Y015963D01*
X015016Y015963D01*
X014909Y016177D02*
X015336Y016177D01*
X015336Y016284D02*
X015229Y016390D01*
X015016Y016390D01*
X014909Y016284D01*
X014909Y016177D01*
X014691Y016177D02*
X014478Y016390D01*
X014371Y016390D01*
X014154Y016284D02*
X014047Y016390D01*
X013834Y016390D01*
X013727Y016284D01*
X013727Y015963D01*
X013510Y016070D02*
X013403Y015963D01*
X013083Y015963D01*
X013083Y016390D01*
X012865Y016390D02*
X012545Y016390D01*
X012438Y016284D01*
X012438Y015963D01*
X012221Y016070D02*
X012221Y016284D01*
X012114Y016390D01*
X011793Y016390D01*
X011576Y016070D02*
X011469Y016070D01*
X011469Y015963D01*
X011576Y015963D01*
X011576Y016070D01*
X011793Y015963D02*
X012114Y015963D01*
X012221Y016070D01*
X011793Y015963D02*
X011793Y016604D01*
X011254Y016284D02*
X011147Y016390D01*
X010827Y016390D01*
X010609Y016284D02*
X010609Y016070D01*
X010502Y015963D01*
X010289Y015963D01*
X010182Y016070D01*
X010182Y016284D01*
X010289Y016390D01*
X010502Y016390D01*
X010609Y016284D01*
X010827Y015963D02*
X011147Y015963D01*
X011254Y016070D01*
X011254Y016284D01*
X009965Y016390D02*
X009965Y015963D01*
X009751Y015963D02*
X009751Y016284D01*
X009644Y016390D01*
X009538Y016284D01*
X009538Y015963D01*
X009751Y016284D02*
X009858Y016390D01*
X009965Y016390D01*
X012865Y016390D02*
X012865Y015963D01*
X013510Y016070D02*
X013510Y016390D01*
X014154Y016604D02*
X014154Y015963D01*
X014691Y015963D02*
X014691Y016390D01*
M02*
