%
M48
M72
T01C0.0200
T02C0.0320
T03C0.0394
T04C0.0400
T05C0.0472
%
T01
X5850Y850
X6100Y1350
X3350Y3850
X8350Y6600
X12600Y8350
X10600Y9350
X5350Y8850
X2850Y10350
X3100Y10850
X2350Y11100
X1600Y13350
X850Y16600
X16600Y7350
X20600Y6850
X24600Y6350
X28600Y5850
T02
X1600Y1350
X1600Y2350
X1600Y3350
X1600Y4350
X1600Y5350
X1600Y6350
X1600Y7350
X1600Y8350
X1600Y9350
X4600Y9350
X4600Y8350
X4600Y7350
X4600Y6350
X4600Y5350
X4600Y4350
X4600Y3350
X4600Y2350
X4600Y1350
T03
X6600Y3350
X7600Y3350
X7600Y4350
X6600Y4350
X6600Y5350
X7600Y5350
X7600Y6350
X6600Y6350
X6600Y7350
X7600Y7350
X7600Y8350
X6600Y8350
X6600Y9350
X7600Y9350
X7600Y10350
X6600Y10350
X6600Y11350
X7600Y11350
X7600Y12350
X6600Y12350
X6600Y13350
X7600Y13350
X7600Y14350
X6600Y14350
X6600Y15350
X7600Y15350
X4100Y15850
X3100Y15850
X2100Y15850
X2600Y12350
X3600Y12350
X11100Y1850
X12100Y1850
X15100Y1850
X16100Y1850
X19100Y1850
X20100Y1850
X23100Y1850
X24100Y1850
X27100Y1850
X28100Y1850
X31100Y1850
X32100Y1850
X34600Y1350
X34600Y2350
X34600Y3850
X34600Y4850
T04
X34600Y6850
X34600Y7850
X34600Y8850
X34600Y9850
X34600Y10850
X34600Y11850
X34600Y12850
X34600Y13850
X34600Y14850
X34600Y15850
T05
X29600Y14350
X25600Y14350
X21600Y14350
X17600Y14350
X13600Y14350
X9600Y14350
X9600Y10350
X13600Y10350
X17600Y10350
X21600Y10350
X25600Y10350
X29600Y10350
X29600Y5350
X25600Y5350
X21600Y5350
X17600Y5350
X13600Y5350
X9600Y5350
X9600Y3350
X13600Y3350
X17600Y3350
X21600Y3350
X25600Y3350
X29600Y3350
M30
