G75*
G70*
%OFA0B0*%
%FSLAX24Y24*%
%IPPOS*%
%LPD*%
%AMOC8*
5,1,8,0,0,1.08239X$1,22.5*
%
%ADD10C,0.0000*%
%ADD11C,0.0060*%
%ADD12C,0.0560*%
%ADD13C,0.0100*%
%ADD14C,0.0634*%
%ADD15C,0.0050*%
%ADD16C,0.0040*%
%ADD17C,0.0080*%
%ADD18R,0.0660X0.0660*%
%ADD19C,0.0660*%
%ADD20R,0.0100X0.0200*%
%ADD21R,0.0050X0.0150*%
%ADD22R,0.0100X0.0100*%
%ADD23C,0.0712*%
%ADD24C,0.0640*%
%ADD25R,0.0315X0.0315*%
%ADD26R,0.0098X0.0098*%
%ADD27R,0.0433X0.0394*%
%ADD28C,0.0400*%
%ADD29C,0.0160*%
%ADD30C,0.0500*%
%ADD31C,0.1000*%
%ADD32C,0.1500*%
D10*
X000100Y000133D02*
X000100Y017129D01*
X035720Y017129D01*
X035720Y000133D01*
X000100Y000133D01*
D11*
X001700Y000633D02*
X004000Y000633D01*
X004000Y009633D01*
X003250Y009633D01*
X003248Y009594D01*
X003242Y009555D01*
X003233Y009517D01*
X003220Y009480D01*
X003203Y009444D01*
X003183Y009411D01*
X003159Y009379D01*
X003133Y009350D01*
X003104Y009324D01*
X003072Y009300D01*
X003039Y009280D01*
X003003Y009263D01*
X002966Y009250D01*
X002928Y009241D01*
X002889Y009235D01*
X002850Y009233D01*
X002811Y009235D01*
X002772Y009241D01*
X002734Y009250D01*
X002697Y009263D01*
X002661Y009280D01*
X002628Y009300D01*
X002596Y009324D01*
X002567Y009350D01*
X002541Y009379D01*
X002517Y009411D01*
X002497Y009444D01*
X002480Y009480D01*
X002467Y009517D01*
X002458Y009555D01*
X002452Y009594D01*
X002450Y009633D01*
X001700Y009633D01*
X001700Y000633D01*
X005782Y000663D02*
X006209Y000663D01*
X005995Y000663D02*
X005995Y001304D01*
X006209Y001090D01*
X006424Y000770D02*
X006424Y000663D01*
X006531Y000663D01*
X006531Y000770D01*
X006424Y000770D01*
X006748Y000663D02*
X007175Y000663D01*
X006962Y000663D02*
X006962Y001304D01*
X007175Y001090D01*
X007393Y000877D02*
X007393Y001304D01*
X007820Y001304D02*
X007820Y000877D01*
X007606Y000663D01*
X007393Y000877D01*
X015936Y008557D02*
X016042Y008450D01*
X016149Y008450D01*
X015936Y008557D02*
X015936Y009090D01*
X016363Y009090D02*
X016363Y008770D01*
X016256Y008663D01*
X015936Y008663D01*
X016580Y008663D02*
X016580Y008984D01*
X016687Y009090D01*
X016900Y009090D01*
X016900Y008877D02*
X016580Y008877D01*
X016580Y008663D02*
X016900Y008663D01*
X017007Y008770D01*
X016900Y008877D01*
X017223Y008663D02*
X017437Y008663D01*
X017330Y008663D02*
X017330Y009304D01*
X017437Y009304D01*
X017654Y008984D02*
X017654Y008877D01*
X018081Y008877D01*
X018081Y008984D02*
X017975Y009090D01*
X017761Y009090D01*
X017654Y008984D01*
X018081Y008984D02*
X018081Y008770D01*
X017975Y008663D01*
X017761Y008663D01*
X018299Y008663D02*
X018512Y008877D01*
X018406Y008877D02*
X018726Y008877D01*
X018726Y008663D02*
X018726Y009304D01*
X018406Y009304D01*
X018299Y009197D01*
X018299Y008984D01*
X018406Y008877D01*
X020231Y008663D02*
X020445Y008663D01*
X020338Y008663D02*
X020338Y009090D01*
X020445Y009090D01*
X020338Y009304D02*
X020338Y009411D01*
X020662Y009197D02*
X020662Y008984D01*
X020769Y008877D01*
X021089Y008877D01*
X021089Y008663D02*
X021089Y009304D01*
X020769Y009304D01*
X020662Y009197D01*
X021951Y009090D02*
X021951Y008557D01*
X022058Y008450D01*
X022165Y008450D01*
X022272Y008663D02*
X021951Y008663D01*
X022272Y008663D02*
X022378Y008770D01*
X022378Y009090D01*
X022595Y009090D02*
X022702Y009090D01*
X022916Y008877D01*
X022916Y009090D02*
X022916Y008663D01*
X023132Y009090D02*
X023239Y009090D01*
X023453Y008877D01*
X023453Y009090D02*
X023453Y008663D01*
X023670Y008877D02*
X024097Y008877D01*
X024097Y008770D02*
X024097Y008984D01*
X023990Y009090D01*
X023777Y009090D01*
X023670Y008984D01*
X023670Y008877D01*
X023777Y008663D02*
X023990Y008663D01*
X024097Y008770D01*
X024315Y008770D02*
X024315Y008984D01*
X024422Y009090D01*
X024742Y009090D01*
X024742Y009304D02*
X024742Y008663D01*
X024422Y008663D01*
X024315Y008770D01*
X024959Y008770D02*
X024959Y008984D01*
X025066Y009090D01*
X025386Y009090D01*
X025386Y008450D01*
X025386Y008663D02*
X025066Y008663D01*
X024959Y008770D01*
X025604Y008770D02*
X025711Y008877D01*
X025924Y008877D01*
X026031Y008984D01*
X025924Y009090D01*
X025604Y009090D01*
X026248Y008984D02*
X026248Y008663D01*
X026569Y008663D01*
X026675Y008770D01*
X026569Y008877D01*
X026248Y008877D01*
X026248Y008984D02*
X026355Y009090D01*
X026569Y009090D01*
X026893Y008984D02*
X026893Y009197D01*
X027000Y009304D01*
X027320Y009304D01*
X027320Y008663D01*
X027320Y008877D02*
X027000Y008877D01*
X026893Y008984D01*
X027106Y008877D02*
X026893Y008663D01*
X026031Y008663D02*
X025711Y008663D01*
X025604Y008770D01*
X033850Y008883D02*
X033850Y008383D01*
X034100Y008133D01*
X033850Y007883D01*
X033850Y007383D01*
X034100Y007133D01*
X033850Y006883D01*
X033850Y006383D01*
X034100Y006133D01*
X034600Y006133D01*
X034850Y006383D01*
X034850Y006883D01*
X034600Y007133D01*
X034850Y007383D01*
X034850Y007883D01*
X034600Y008133D01*
X034850Y008383D01*
X034850Y008883D01*
X034600Y009133D01*
X034850Y009383D01*
X034850Y009883D01*
X034600Y010133D01*
X034850Y010383D01*
X034850Y010883D01*
X034600Y011133D01*
X034850Y011383D01*
X034850Y011883D01*
X034600Y012133D01*
X034850Y012383D01*
X034850Y012883D01*
X034600Y013133D01*
X034850Y013383D01*
X034850Y013883D01*
X034600Y014133D01*
X034850Y014383D01*
X034850Y014883D01*
X034600Y015133D01*
X034850Y015383D01*
X034850Y015883D01*
X034600Y016133D01*
X034100Y016133D01*
X033850Y015883D01*
X033850Y015383D01*
X034100Y015133D01*
X033850Y014883D01*
X033850Y014383D01*
X034100Y014133D01*
X033850Y013883D01*
X033850Y013383D01*
X034100Y013133D01*
X033850Y012883D01*
X033850Y012383D01*
X034100Y012133D01*
X033850Y011883D01*
X033850Y011383D01*
X034100Y011133D01*
X033850Y010883D01*
X033850Y010383D01*
X034100Y010133D01*
X033850Y009883D01*
X033850Y009383D01*
X034100Y009133D01*
X033850Y008883D01*
X030914Y015857D02*
X030914Y016284D01*
X031127Y016284D01*
X031127Y016177D02*
X030914Y016177D01*
X030698Y015963D02*
X030271Y015963D01*
X030053Y016070D02*
X029626Y016497D01*
X029626Y016070D01*
X029733Y015963D01*
X029946Y015963D01*
X030053Y016070D01*
X030053Y016497D01*
X029946Y016604D01*
X029733Y016604D01*
X029626Y016497D01*
X029409Y016390D02*
X029195Y016604D01*
X029195Y015963D01*
X029409Y015963D02*
X028981Y015963D01*
X028764Y015963D02*
X028337Y016390D01*
X028337Y016497D01*
X028444Y016604D01*
X028657Y016604D01*
X028764Y016497D01*
X028764Y015963D02*
X028337Y015963D01*
X027475Y015963D02*
X027155Y015963D01*
X027048Y016070D01*
X027048Y016497D01*
X027155Y016604D01*
X027475Y016604D01*
X027475Y015963D01*
X026830Y016070D02*
X026830Y016284D01*
X026724Y016390D01*
X026510Y016390D01*
X026403Y016284D01*
X026403Y016070D01*
X026510Y015963D01*
X026724Y015963D01*
X026830Y016070D01*
X026186Y016070D02*
X026079Y015963D01*
X025759Y015963D01*
X025759Y016390D01*
X025541Y016284D02*
X025541Y016070D01*
X025434Y015963D01*
X025114Y015963D01*
X025114Y015857D02*
X025114Y016390D01*
X025434Y016390D01*
X025541Y016284D01*
X026186Y016390D02*
X026186Y016070D01*
X025328Y015750D02*
X025221Y015750D01*
X025114Y015857D01*
X024252Y015963D02*
X024252Y016070D01*
X023825Y016497D01*
X023825Y016604D01*
X024252Y016604D01*
X023608Y016284D02*
X023608Y016070D01*
X023501Y015963D01*
X023287Y015963D01*
X023181Y016070D01*
X023181Y016284D01*
X023287Y016390D01*
X023501Y016390D01*
X023608Y016284D01*
X023825Y015963D02*
X024252Y015963D01*
X022963Y015963D02*
X022963Y016604D01*
X022963Y016390D02*
X022643Y016390D01*
X022536Y016284D01*
X022536Y016070D01*
X022643Y015963D01*
X022963Y015963D01*
X022318Y016070D02*
X022318Y016284D01*
X022212Y016390D01*
X021998Y016390D01*
X021891Y016284D01*
X021891Y016177D01*
X022318Y016177D01*
X022318Y016070D02*
X022212Y015963D01*
X021998Y015963D01*
X021674Y015963D02*
X021460Y015963D01*
X021567Y015963D02*
X021567Y016604D01*
X021674Y016604D01*
X019955Y016390D02*
X019955Y016070D01*
X019848Y015963D01*
X019742Y016070D01*
X019635Y015963D01*
X019528Y016070D01*
X019528Y016390D01*
X019311Y016390D02*
X019311Y016070D01*
X019204Y015963D01*
X019097Y016070D01*
X018990Y015963D01*
X018884Y016070D01*
X018884Y016390D01*
X018666Y016390D02*
X018666Y016070D01*
X018559Y015963D01*
X018452Y016070D01*
X018346Y015963D01*
X018239Y016070D01*
X018239Y016390D01*
X018021Y016070D02*
X017915Y016070D01*
X017915Y015963D01*
X018021Y015963D01*
X018021Y016070D01*
X017699Y016070D02*
X017699Y016284D01*
X017592Y016390D01*
X017272Y016390D01*
X017272Y015857D01*
X017379Y015750D01*
X017486Y015750D01*
X017592Y015963D02*
X017272Y015963D01*
X017055Y016070D02*
X017055Y016284D01*
X016948Y016390D01*
X016734Y016390D01*
X016628Y016284D01*
X016628Y016177D01*
X017055Y016177D01*
X017055Y016070D02*
X016948Y015963D01*
X016734Y015963D01*
X016410Y015963D02*
X016197Y015963D01*
X016303Y015963D02*
X016303Y016604D01*
X016410Y016604D01*
X015980Y016604D02*
X015980Y015963D01*
X015660Y015963D01*
X015553Y016070D01*
X015553Y016284D01*
X015660Y016390D01*
X015980Y016390D01*
X015336Y016284D02*
X015336Y016070D01*
X015229Y015963D01*
X015016Y015963D01*
X014909Y016177D02*
X015336Y016177D01*
X015336Y016284D02*
X015229Y016390D01*
X015016Y016390D01*
X014909Y016284D01*
X014909Y016177D01*
X014691Y016177D02*
X014478Y016390D01*
X014371Y016390D01*
X014154Y016284D02*
X014047Y016390D01*
X013834Y016390D01*
X013727Y016284D01*
X013727Y015963D01*
X013510Y016070D02*
X013403Y015963D01*
X013083Y015963D01*
X013083Y016390D01*
X012865Y016390D02*
X012545Y016390D01*
X012438Y016284D01*
X012438Y015963D01*
X012221Y016070D02*
X012221Y016284D01*
X012114Y016390D01*
X011793Y016390D01*
X011576Y016070D02*
X011469Y016070D01*
X011469Y015963D01*
X011576Y015963D01*
X011576Y016070D01*
X011793Y015963D02*
X012114Y015963D01*
X012221Y016070D01*
X011793Y015963D02*
X011793Y016604D01*
X011254Y016284D02*
X011147Y016390D01*
X010827Y016390D01*
X010609Y016284D02*
X010609Y016070D01*
X010502Y015963D01*
X010289Y015963D01*
X010182Y016070D01*
X010182Y016284D01*
X010289Y016390D01*
X010502Y016390D01*
X010609Y016284D01*
X010827Y015963D02*
X011147Y015963D01*
X011254Y016070D01*
X011254Y016284D01*
X009965Y016390D02*
X009965Y015963D01*
X009751Y015963D02*
X009751Y016284D01*
X009644Y016390D01*
X009538Y016284D01*
X009538Y015963D01*
X009751Y016284D02*
X009858Y016390D01*
X009965Y016390D01*
X012865Y016390D02*
X012865Y015963D01*
X013510Y016070D02*
X013510Y016390D01*
X014154Y016604D02*
X014154Y015963D01*
X014691Y015963D02*
X014691Y016390D01*
X017592Y015963D02*
X017699Y016070D01*
X030271Y016390D02*
X030271Y016497D01*
X030377Y016604D01*
X030591Y016604D01*
X030698Y016497D01*
X030271Y016390D02*
X030698Y015963D01*
X015074Y009304D02*
X015074Y008663D01*
X014753Y008663D01*
X014647Y008770D01*
X014647Y008877D01*
X014753Y008984D01*
X014647Y009090D01*
X014647Y009197D01*
X014753Y009304D01*
X015074Y009304D01*
X015074Y008984D02*
X014753Y008984D01*
X014429Y008984D02*
X014429Y008770D01*
X014322Y008663D01*
X014109Y008663D01*
X014002Y008770D01*
X014002Y008984D01*
X014109Y009090D01*
X014322Y009090D01*
X014429Y008984D01*
X013784Y008770D02*
X013678Y008877D01*
X013357Y008877D01*
X013357Y008984D02*
X013357Y008663D01*
X013678Y008663D01*
X013784Y008770D01*
X013678Y009090D02*
X013464Y009090D01*
X013357Y008984D01*
X013140Y009090D02*
X013140Y008663D01*
X013140Y008877D02*
X012926Y009090D01*
X012820Y009090D01*
X012603Y008984D02*
X012496Y009090D01*
X012176Y009090D01*
X012176Y009304D02*
X012176Y008663D01*
X012496Y008663D01*
X012603Y008770D01*
X012603Y008984D01*
D12*
X004630Y009133D02*
X004070Y009133D01*
X004070Y008133D02*
X004630Y008133D01*
X004630Y007133D02*
X004070Y007133D01*
X004070Y006133D02*
X004630Y006133D01*
X004630Y005133D02*
X004070Y005133D01*
X004070Y004133D02*
X004630Y004133D01*
X004630Y003133D02*
X004070Y003133D01*
X004070Y002133D02*
X004630Y002133D01*
X004630Y001133D02*
X004070Y001133D01*
X001630Y001133D02*
X001070Y001133D01*
X001070Y002133D02*
X001630Y002133D01*
X001630Y003133D02*
X001070Y003133D01*
X001070Y004133D02*
X001630Y004133D01*
X001630Y005133D02*
X001070Y005133D01*
X001070Y006133D02*
X001630Y006133D01*
X001630Y007133D02*
X001070Y007133D01*
X001070Y008133D02*
X001630Y008133D01*
X001630Y009133D02*
X001070Y009133D01*
D13*
X001350Y009133D02*
X000850Y009633D01*
X000850Y014133D01*
X006350Y014133D01*
X005350Y014633D02*
X000350Y014633D01*
X000350Y008633D01*
X000850Y008133D01*
X001350Y008133D01*
X002600Y008383D02*
X002850Y008633D01*
X005100Y008633D01*
X005350Y008133D02*
X004350Y008133D01*
X005350Y008133D02*
X005850Y008633D01*
X007850Y008633D01*
X008350Y008133D01*
X012350Y008133D01*
X010350Y009133D02*
X008850Y009133D01*
X008350Y009633D01*
X005850Y009633D01*
X005350Y009133D01*
X004350Y009133D01*
X005850Y008133D02*
X005350Y007633D01*
X003100Y007633D01*
X002850Y007383D01*
X002850Y006383D01*
X002600Y006133D01*
X001350Y006133D01*
X001350Y007133D02*
X002350Y007133D01*
X002600Y007383D01*
X002600Y008383D01*
X004350Y007133D02*
X005350Y007133D01*
X005850Y007633D01*
X007850Y007633D01*
X008350Y007133D01*
X016350Y007133D01*
X020350Y006633D02*
X008600Y006633D01*
X008350Y006883D01*
X007850Y006883D01*
X007600Y006633D01*
X005350Y006633D01*
X004850Y006133D01*
X004350Y006133D01*
X004350Y005133D02*
X005850Y005633D01*
X008100Y005633D01*
X008600Y006133D01*
X024350Y006133D01*
X023850Y004633D02*
X023850Y004468D01*
X023350Y004468D01*
X022850Y004429D02*
X022850Y003883D01*
X023350Y003883D01*
X023350Y003799D01*
X022350Y003838D02*
X022350Y003133D01*
X022350Y002383D02*
X024350Y002383D01*
X024350Y000883D01*
X022350Y000883D01*
X022350Y002383D01*
X020350Y002383D02*
X020350Y000883D01*
X018350Y000883D01*
X018350Y002383D01*
X020350Y002383D01*
X018350Y003133D02*
X018350Y003838D01*
X018850Y003883D02*
X019350Y003883D01*
X019350Y003799D01*
X018850Y003883D02*
X018850Y004429D01*
X018350Y004429D01*
X019350Y004468D02*
X019850Y004468D01*
X019850Y004633D01*
X022350Y004429D02*
X022850Y004429D01*
X026350Y004429D02*
X026850Y004429D01*
X026850Y003883D01*
X027350Y003883D01*
X027350Y003799D01*
X027350Y004468D02*
X027850Y004468D01*
X027850Y004633D01*
X026350Y003838D02*
X026350Y003133D01*
X026350Y002383D02*
X028350Y002383D01*
X028350Y000883D01*
X026350Y000883D01*
X026350Y002383D01*
X030350Y002383D02*
X030350Y000883D01*
X032350Y000883D01*
X032350Y002383D01*
X030350Y002383D01*
X030350Y003133D02*
X030350Y003838D01*
X030850Y003799D02*
X030850Y004383D01*
X030350Y004383D01*
X030350Y004429D01*
X030850Y003799D02*
X031350Y003799D01*
X031350Y004468D02*
X031850Y004468D01*
X031850Y004633D01*
X033600Y005133D02*
X035100Y005133D01*
X035100Y003133D01*
X033600Y003133D01*
X033600Y005133D01*
X033600Y002633D02*
X035100Y002633D01*
X035100Y000633D01*
X033600Y000633D01*
X033600Y002633D01*
X028350Y005633D02*
X008600Y005633D01*
X008350Y005383D01*
X008350Y004633D01*
X005350Y004633D01*
X004850Y004133D01*
X004350Y004133D01*
X004850Y004633D02*
X005350Y005133D01*
X006350Y005133D01*
X004850Y004633D02*
X002850Y004633D01*
X002600Y004383D01*
X002600Y001383D01*
X002350Y001133D01*
X001350Y001133D01*
X005850Y003633D02*
X006350Y003133D01*
X005850Y003633D02*
X003100Y003633D01*
X007350Y006133D02*
X007850Y006133D01*
X008100Y006383D01*
X011850Y004633D02*
X011850Y004468D01*
X011350Y004468D01*
X010850Y004383D02*
X010350Y004383D01*
X010350Y004429D01*
X010850Y004383D02*
X010850Y003799D01*
X011350Y003799D01*
X010350Y003838D02*
X010350Y003133D01*
X010350Y002383D02*
X012350Y002383D01*
X012350Y000883D01*
X010350Y000883D01*
X010350Y002383D01*
X014350Y002383D02*
X014350Y000883D01*
X016350Y000883D01*
X016350Y002383D01*
X014350Y002383D01*
X014350Y003133D02*
X014350Y003838D01*
X014850Y003883D02*
X015350Y003883D01*
X015350Y003799D01*
X014850Y003883D02*
X014850Y004429D01*
X014350Y004429D01*
X015350Y004468D02*
X015850Y004468D01*
X015850Y004633D01*
X006350Y008133D02*
X005850Y008133D01*
X006350Y010133D02*
X002600Y010133D01*
X002850Y010633D02*
X005350Y010633D01*
X005850Y011133D01*
X006350Y011133D01*
X006850Y011383D02*
X006600Y011633D01*
X004850Y011633D01*
X004350Y011133D01*
X002350Y011133D01*
X002100Y010883D01*
X001850Y011383D02*
X001850Y012883D01*
X003850Y012883D01*
X003850Y011383D01*
X001850Y011383D01*
X001350Y013133D02*
X006350Y013133D01*
X005350Y014633D02*
X005850Y015133D01*
X006350Y015133D01*
X004350Y014883D02*
X001350Y014883D01*
X001350Y016383D01*
X004350Y016383D01*
X004350Y014883D01*
X003850Y015633D02*
X003850Y016133D01*
X003350Y016633D01*
X000850Y016633D01*
X000600Y016383D01*
X006850Y011383D02*
X006850Y010383D01*
X007100Y010133D01*
X007350Y010133D01*
D14*
X003350Y011816D02*
X003350Y012450D01*
X002350Y012450D02*
X002350Y011816D01*
X001850Y015316D02*
X001850Y015950D01*
X002850Y015950D02*
X002850Y015316D01*
X003850Y015316D02*
X003850Y015950D01*
X010850Y001950D02*
X010850Y001316D01*
X011850Y001316D02*
X011850Y001950D01*
X014850Y001950D02*
X014850Y001316D01*
X015850Y001316D02*
X015850Y001950D01*
X018850Y001950D02*
X018850Y001316D01*
X019850Y001316D02*
X019850Y001950D01*
X022850Y001950D02*
X022850Y001316D01*
X023850Y001316D02*
X023850Y001950D01*
X026850Y001950D02*
X026850Y001316D01*
X027850Y001316D02*
X027850Y001950D01*
X030850Y001950D02*
X030850Y001316D01*
X031850Y001316D02*
X031850Y001950D01*
X034033Y002133D02*
X034667Y002133D01*
X034667Y001133D02*
X034033Y001133D01*
X034033Y003633D02*
X034667Y003633D01*
X034667Y004633D02*
X034033Y004633D01*
D15*
X033350Y004633D02*
X032850Y004633D01*
X033100Y004883D02*
X033100Y004383D01*
X033100Y003883D02*
X033100Y003383D01*
X032100Y002883D02*
X031600Y002883D01*
X031850Y002633D02*
X031850Y003133D01*
X031100Y002883D02*
X030600Y002883D01*
X032850Y002133D02*
X033350Y002133D01*
X033100Y002383D02*
X033100Y001883D01*
X033100Y001383D02*
X033100Y000883D01*
X028100Y002883D02*
X027600Y002883D01*
X027850Y002633D02*
X027850Y003133D01*
X027100Y002883D02*
X026600Y002883D01*
X024100Y002883D02*
X023600Y002883D01*
X023850Y002633D02*
X023850Y003133D01*
X023100Y002883D02*
X022600Y002883D01*
X020100Y002883D02*
X019600Y002883D01*
X019850Y002633D02*
X019850Y003133D01*
X019100Y002883D02*
X018600Y002883D01*
X016100Y002883D02*
X015600Y002883D01*
X015850Y002633D02*
X015850Y003133D01*
X015100Y002883D02*
X014600Y002883D01*
X012100Y002883D02*
X011600Y002883D01*
X011850Y002633D02*
X011850Y003133D01*
X011100Y002883D02*
X010600Y002883D01*
X001850Y014133D02*
X001850Y014633D01*
X001600Y014383D02*
X002100Y014383D01*
X003600Y014383D02*
X004100Y014383D01*
D16*
X002927Y014230D02*
X002927Y014537D01*
X002850Y014614D01*
X002620Y014614D01*
X002620Y014153D01*
X002850Y014153D01*
X002927Y014230D01*
X003370Y011114D02*
X003600Y011114D01*
X003677Y011037D01*
X003677Y010884D01*
X003600Y010807D01*
X003370Y010807D01*
X003523Y010807D02*
X003677Y010653D01*
X003830Y010653D02*
X004137Y010653D01*
X003830Y010653D02*
X003830Y011114D01*
X003370Y011114D02*
X003370Y010653D01*
X004291Y011037D02*
X004444Y010884D01*
X004444Y010653D01*
X004444Y010884D02*
X004598Y011037D01*
X004598Y011114D01*
X004291Y011114D02*
X004291Y011037D01*
X002137Y011114D02*
X002137Y010807D01*
X001984Y010653D01*
X001830Y010807D01*
X001830Y011114D01*
X001677Y011114D02*
X001370Y011114D01*
X001370Y010884D01*
X001523Y010960D01*
X001600Y010960D01*
X001677Y010884D01*
X001677Y010730D01*
X001600Y010653D01*
X001447Y010653D01*
X001370Y010730D01*
X033120Y010750D02*
X033120Y010443D01*
X033350Y010443D01*
X033273Y010596D01*
X033273Y010673D01*
X033350Y010750D01*
X033503Y010750D01*
X033580Y010673D01*
X033580Y010520D01*
X033503Y010443D01*
X033503Y009750D02*
X033427Y009750D01*
X033350Y009673D01*
X033350Y009443D01*
X033503Y009443D01*
X033580Y009520D01*
X033580Y009673D01*
X033503Y009750D01*
X033196Y009596D02*
X033350Y009443D01*
X033196Y009596D02*
X033120Y009750D01*
X033350Y011443D02*
X033350Y011750D01*
X033580Y011673D02*
X033120Y011673D01*
X033350Y011443D01*
X033503Y012443D02*
X033580Y012520D01*
X033580Y012673D01*
X033503Y012750D01*
X033427Y012750D01*
X033350Y012673D01*
X033350Y012596D01*
X033350Y012673D02*
X033273Y012750D01*
X033196Y012750D01*
X033120Y012673D01*
X033120Y012520D01*
X033196Y012443D01*
X033196Y013443D02*
X033120Y013520D01*
X033120Y013673D01*
X033196Y013750D01*
X033273Y013750D01*
X033580Y013443D01*
X033580Y013750D01*
X033580Y014443D02*
X033580Y014750D01*
X033580Y014596D02*
X033120Y014596D01*
X033273Y014443D01*
X033350Y015443D02*
X033350Y015750D01*
X033120Y015750D02*
X033580Y015750D01*
X033580Y015443D02*
X033120Y015443D01*
D17*
X032279Y017090D02*
X032279Y000846D01*
X031610Y000177D01*
X028421Y000177D01*
X028421Y017090D01*
X032279Y017090D01*
X028279Y017090D02*
X028279Y000846D01*
X027610Y000177D01*
X024421Y000177D01*
X024421Y017090D01*
X028279Y017090D01*
X024279Y017090D02*
X024279Y000846D01*
X023610Y000177D01*
X020421Y000177D01*
X020421Y017090D01*
X024279Y017090D01*
X020279Y017090D02*
X020279Y000846D01*
X019610Y000177D01*
X016421Y000177D01*
X016421Y017090D01*
X020279Y017090D01*
X016279Y017090D02*
X016279Y000846D01*
X015610Y000177D01*
X012421Y000177D01*
X012421Y017090D01*
X016279Y017090D01*
X012279Y017090D02*
X012279Y000846D01*
X011610Y000177D01*
X008421Y000177D01*
X008421Y017090D01*
X012279Y017090D01*
X007850Y015383D02*
X007850Y014883D01*
X007600Y014633D01*
X006100Y014633D01*
X005850Y014883D01*
X005850Y015383D01*
X006100Y015633D01*
X007600Y015633D01*
X007850Y015383D01*
X007600Y014633D02*
X007850Y014383D01*
X007850Y013883D01*
X007600Y013633D01*
X006100Y013633D01*
X005850Y013883D01*
X005850Y014383D01*
X006100Y014633D01*
X006100Y013633D02*
X005850Y013383D01*
X005850Y012883D01*
X006100Y012633D01*
X007600Y012633D01*
X007850Y012383D01*
X007850Y011883D01*
X007600Y011633D01*
X006100Y011633D01*
X005850Y011883D01*
X005850Y012383D01*
X006100Y012633D01*
X007600Y012633D02*
X007850Y012883D01*
X007850Y013383D01*
X007600Y013633D01*
X007600Y011633D02*
X007850Y011383D01*
X007850Y010883D01*
X007600Y010633D01*
X006100Y010633D01*
X005850Y010883D01*
X005850Y011383D01*
X006100Y011633D01*
X006100Y010633D02*
X005850Y010383D01*
X005850Y009883D01*
X006100Y009633D01*
X007600Y009633D01*
X007850Y009383D01*
X007850Y008883D01*
X007600Y008633D01*
X007850Y008383D01*
X007850Y007883D01*
X007600Y007633D01*
X006100Y007633D01*
X005850Y007883D01*
X005850Y008383D01*
X006100Y008633D01*
X007600Y008633D01*
X007600Y007633D02*
X007850Y007383D01*
X007850Y006883D01*
X007600Y006633D01*
X006100Y006633D01*
X005850Y006883D01*
X005850Y007383D01*
X006100Y007633D01*
X006100Y006633D02*
X005850Y006383D01*
X005850Y005883D01*
X006100Y005633D01*
X007600Y005633D01*
X007850Y005883D01*
X007850Y006383D01*
X007600Y006633D01*
X007600Y005633D02*
X007850Y005383D01*
X007850Y004883D01*
X007600Y004633D01*
X006100Y004633D01*
X005850Y004883D01*
X005850Y005383D01*
X006100Y005633D01*
X006100Y004633D02*
X005850Y004383D01*
X005850Y003883D01*
X006100Y003633D01*
X007600Y003633D01*
X007850Y003883D01*
X007850Y004383D01*
X007600Y004633D01*
X007600Y003633D02*
X007850Y003383D01*
X007850Y002883D01*
X007600Y002633D01*
X006100Y002633D01*
X005850Y002883D01*
X005850Y003383D01*
X006100Y003633D01*
X008020Y003303D02*
X008020Y002963D01*
X008350Y003133D01*
X008250Y003133D01*
X008350Y003133D02*
X008020Y003303D01*
X006100Y008633D02*
X005850Y008883D01*
X005850Y009383D01*
X006100Y009633D01*
X007600Y009633D02*
X007850Y009883D01*
X007850Y010383D01*
X007600Y010633D01*
D18*
X007350Y003133D03*
D19*
X006350Y003133D03*
X006350Y004133D03*
X007350Y004133D03*
X007350Y005133D03*
X006350Y005133D03*
X006350Y006133D03*
X007350Y006133D03*
X007350Y007133D03*
X006350Y007133D03*
X006350Y008133D03*
X007350Y008133D03*
X007350Y009133D03*
X006350Y009133D03*
X006350Y010133D03*
X007350Y010133D03*
X007350Y011133D03*
X006350Y011133D03*
X006350Y012133D03*
X007350Y012133D03*
X007350Y013133D03*
X006350Y013133D03*
X006350Y014133D03*
X007350Y014133D03*
X007350Y015133D03*
X006350Y015133D03*
D20*
X008140Y003133D03*
D21*
X008065Y003058D03*
X008065Y003208D03*
D22*
X008220Y003133D03*
D23*
X008994Y003133D02*
X009706Y003133D01*
X012994Y003133D02*
X013706Y003133D01*
X016994Y003133D02*
X017706Y003133D01*
X020994Y003133D02*
X021706Y003133D01*
X024994Y003133D02*
X025706Y003133D01*
X028994Y003133D02*
X029706Y003133D01*
X029706Y005133D02*
X028994Y005133D01*
X025706Y005133D02*
X024994Y005133D01*
X021706Y005133D02*
X020994Y005133D01*
X017706Y005133D02*
X016994Y005133D01*
X013706Y005133D02*
X012994Y005133D01*
X009706Y005133D02*
X008994Y005133D01*
X008994Y010133D02*
X009706Y010133D01*
X012994Y010133D02*
X013706Y010133D01*
X016994Y010133D02*
X017706Y010133D01*
X020994Y010133D02*
X021706Y010133D01*
X024994Y010133D02*
X025706Y010133D01*
X028994Y010133D02*
X029706Y010133D01*
X029706Y014133D02*
X028994Y014133D01*
X025706Y014133D02*
X024994Y014133D01*
X021706Y014133D02*
X020994Y014133D01*
X017706Y014133D02*
X016994Y014133D01*
X013706Y014133D02*
X012994Y014133D01*
X009706Y014133D02*
X008994Y014133D01*
D24*
X034030Y013633D02*
X034670Y013633D01*
X034670Y012633D02*
X034030Y012633D01*
X034030Y011633D02*
X034670Y011633D01*
X034670Y010633D02*
X034030Y010633D01*
X034030Y009633D02*
X034670Y009633D01*
X034670Y008633D02*
X034030Y008633D01*
X034030Y007633D02*
X034670Y007633D01*
X034670Y006633D02*
X034030Y006633D01*
X034030Y014633D02*
X034670Y014633D01*
X034670Y015633D02*
X034030Y015633D01*
D25*
X030350Y004429D03*
X030350Y003838D03*
X026350Y003838D03*
X026350Y004429D03*
X022350Y004429D03*
X022350Y003838D03*
X018350Y003838D03*
X018350Y004429D03*
X014350Y004429D03*
X014350Y003838D03*
X010350Y003838D03*
X010350Y004429D03*
D26*
X010350Y004084D03*
X014350Y004084D03*
X018350Y004084D03*
X022350Y004084D03*
X026350Y004084D03*
X030350Y004084D03*
D27*
X031350Y003799D03*
X031350Y004468D03*
X027350Y004468D03*
X027350Y003799D03*
X023350Y003799D03*
X023350Y004468D03*
X019350Y004468D03*
X019350Y003799D03*
X015350Y003799D03*
X015350Y004468D03*
X011350Y004468D03*
X011350Y003799D03*
D28*
X008100Y006383D03*
X012350Y008133D03*
X010350Y009133D03*
X005100Y008633D03*
X002600Y010133D03*
X002850Y010633D03*
X002100Y010883D03*
X001350Y013133D03*
X000600Y016383D03*
X016350Y007133D03*
X020350Y006633D03*
X024350Y006133D03*
X028350Y005633D03*
X005850Y001133D03*
X005600Y000633D03*
X003100Y003633D03*
D29*
X004850Y001633D02*
X004350Y001133D01*
X004850Y001633D02*
X008350Y001633D01*
X008350Y004133D01*
X009350Y005133D01*
X011850Y005133D01*
X013350Y005133D01*
X015850Y005133D01*
X017350Y005133D01*
X019850Y005133D01*
X021350Y005133D01*
X023850Y005133D01*
X025350Y005133D01*
X027850Y005133D01*
X029350Y005133D01*
X031850Y005133D01*
X031850Y004633D01*
X034350Y004633D01*
X035350Y004633D01*
X035350Y002133D01*
X034350Y002133D01*
X034350Y001133D02*
X034350Y000383D01*
X005850Y000383D01*
X005600Y000633D01*
X005850Y001133D02*
X006350Y000633D01*
X033350Y000633D01*
X033350Y003633D01*
X034350Y003633D01*
X031850Y004633D02*
X031850Y001633D01*
X030850Y001633D02*
X030850Y003133D01*
X030350Y003133D01*
X029350Y003133D01*
X026850Y003133D02*
X026350Y003133D01*
X025350Y003133D01*
X026850Y003133D02*
X026850Y001633D01*
X027850Y001633D02*
X027850Y004633D01*
X027850Y005133D01*
X023850Y005133D02*
X023850Y004633D01*
X023850Y001633D01*
X022850Y001633D02*
X022850Y003133D01*
X022350Y003133D01*
X021350Y003133D01*
X018850Y003133D02*
X018350Y003133D01*
X017350Y003133D01*
X018850Y003133D02*
X018850Y001633D01*
X019850Y001633D02*
X019850Y004633D01*
X019850Y005133D01*
X015850Y005133D02*
X015850Y004633D01*
X015850Y001633D01*
X014850Y001633D02*
X014850Y003133D01*
X014350Y003133D01*
X013350Y003133D01*
X010850Y003133D02*
X010350Y003133D01*
X009350Y003133D01*
X010850Y003133D02*
X010850Y001633D01*
X011850Y001633D02*
X011850Y004633D01*
X011850Y005133D01*
X029350Y015133D02*
X029350Y015633D01*
D30*
X029350Y016133D01*
X028850Y016133D01*
X028850Y014633D01*
X028850Y014133D01*
X029350Y014133D01*
X029350Y014633D01*
X028850Y014633D01*
X009850Y014633D01*
X009350Y014633D01*
X009350Y015133D02*
X009350Y014133D01*
X013350Y014133D01*
X017350Y014133D01*
X021350Y014133D01*
X025350Y014133D01*
X028850Y014133D01*
X029350Y014633D02*
X029350Y015133D01*
X009350Y015133D01*
X009350Y013133D02*
X009350Y010133D01*
X013350Y010133D02*
X013350Y012133D01*
X031850Y012133D01*
X031850Y013633D01*
X034350Y013633D01*
X034350Y012633D02*
X032850Y012633D01*
X032850Y011133D01*
X017350Y011133D01*
X017350Y010133D01*
X009350Y013133D02*
X030850Y013133D01*
X030850Y014633D01*
X034350Y014633D01*
X034350Y015633D02*
X029350Y015633D01*
X029350Y016133D02*
X034350Y016133D01*
D31*
X029350Y015633D02*
X029350Y014633D01*
D32*
X034350Y015883D02*
X034350Y016133D01*
X034350Y015883D02*
X009850Y015883D01*
X009850Y014633D01*
M02*
