G75*
G70*
%OFA0B0*%
%FSLAX24Y24*%
%IPPOS*%
%LPD*%
%AMOC8*
5,1,8,0,0,1.08239X$1,22.5*
%
%ADD10C,0.0560*%
%ADD11C,0.0634*%
%ADD12R,0.0660X0.0660*%
%ADD13C,0.0660*%
%ADD14C,0.0712*%
%ADD15C,0.0640*%
%ADD16C,0.0100*%
%ADD17C,0.0400*%
%ADD18C,0.0160*%
%ADD19C,0.0500*%
D10*
X001070Y001133D02*
X001630Y001133D01*
X001630Y002133D02*
X001070Y002133D01*
X001070Y003133D02*
X001630Y003133D01*
X001630Y004133D02*
X001070Y004133D01*
X001070Y005133D02*
X001630Y005133D01*
X001630Y006133D02*
X001070Y006133D01*
X001070Y007133D02*
X001630Y007133D01*
X001630Y008133D02*
X001070Y008133D01*
X001070Y009133D02*
X001630Y009133D01*
X004070Y009133D02*
X004630Y009133D01*
X004630Y008133D02*
X004070Y008133D01*
X004070Y007133D02*
X004630Y007133D01*
X004630Y006133D02*
X004070Y006133D01*
X004070Y005133D02*
X004630Y005133D01*
X004630Y004133D02*
X004070Y004133D01*
X004070Y003133D02*
X004630Y003133D01*
X004630Y002133D02*
X004070Y002133D01*
X004070Y001133D02*
X004630Y001133D01*
D11*
X010850Y001316D02*
X010850Y001950D01*
X011850Y001950D02*
X011850Y001316D01*
X014850Y001316D02*
X014850Y001950D01*
X015850Y001950D02*
X015850Y001316D01*
X018850Y001316D02*
X018850Y001950D01*
X019850Y001950D02*
X019850Y001316D01*
X022850Y001316D02*
X022850Y001950D01*
X023850Y001950D02*
X023850Y001316D01*
X026850Y001316D02*
X026850Y001950D01*
X027850Y001950D02*
X027850Y001316D01*
X030850Y001316D02*
X030850Y001950D01*
X031850Y001950D02*
X031850Y001316D01*
X034033Y001133D02*
X034667Y001133D01*
X034667Y002133D02*
X034033Y002133D01*
X034033Y003633D02*
X034667Y003633D01*
X034667Y004633D02*
X034033Y004633D01*
X003850Y015316D02*
X003850Y015950D01*
X002850Y015950D02*
X002850Y015316D01*
X001850Y015316D02*
X001850Y015950D01*
X002350Y012450D02*
X002350Y011816D01*
X003350Y011816D02*
X003350Y012450D01*
D12*
X007350Y003133D03*
D13*
X006350Y003133D03*
X006350Y004133D03*
X007350Y004133D03*
X007350Y005133D03*
X006350Y005133D03*
X006350Y006133D03*
X007350Y006133D03*
X007350Y007133D03*
X006350Y007133D03*
X006350Y008133D03*
X007350Y008133D03*
X007350Y009133D03*
X006350Y009133D03*
X006350Y010133D03*
X007350Y010133D03*
X007350Y011133D03*
X006350Y011133D03*
X006350Y012133D03*
X007350Y012133D03*
X007350Y013133D03*
X006350Y013133D03*
X006350Y014133D03*
X007350Y014133D03*
X007350Y015133D03*
X006350Y015133D03*
D14*
X008994Y014133D02*
X009706Y014133D01*
X012994Y014133D02*
X013706Y014133D01*
X016994Y014133D02*
X017706Y014133D01*
X020994Y014133D02*
X021706Y014133D01*
X024994Y014133D02*
X025706Y014133D01*
X028994Y014133D02*
X029706Y014133D01*
X029706Y010133D02*
X028994Y010133D01*
X025706Y010133D02*
X024994Y010133D01*
X021706Y010133D02*
X020994Y010133D01*
X017706Y010133D02*
X016994Y010133D01*
X013706Y010133D02*
X012994Y010133D01*
X009706Y010133D02*
X008994Y010133D01*
X008994Y005133D02*
X009706Y005133D01*
X012994Y005133D02*
X013706Y005133D01*
X016994Y005133D02*
X017706Y005133D01*
X020994Y005133D02*
X021706Y005133D01*
X024994Y005133D02*
X025706Y005133D01*
X028994Y005133D02*
X029706Y005133D01*
X029706Y003133D02*
X028994Y003133D01*
X025706Y003133D02*
X024994Y003133D01*
X021706Y003133D02*
X020994Y003133D01*
X017706Y003133D02*
X016994Y003133D01*
X013706Y003133D02*
X012994Y003133D01*
X009706Y003133D02*
X008994Y003133D01*
D15*
X034030Y006633D02*
X034670Y006633D01*
X034670Y007633D02*
X034030Y007633D01*
X034030Y008633D02*
X034670Y008633D01*
X034670Y009633D02*
X034030Y009633D01*
X034030Y010633D02*
X034670Y010633D01*
X034670Y011633D02*
X034030Y011633D01*
X034030Y012633D02*
X034670Y012633D01*
X034670Y013633D02*
X034030Y013633D01*
X034030Y014633D02*
X034670Y014633D01*
X034670Y015633D02*
X034030Y015633D01*
D16*
X001350Y001133D02*
X000600Y001133D01*
X000350Y001383D01*
X000350Y016133D01*
X000600Y016383D01*
X001850Y015633D02*
X001850Y012633D01*
X002350Y012133D01*
X002350Y011633D01*
X003350Y011133D01*
X003350Y004133D01*
X003100Y003883D01*
X003100Y003633D01*
X002600Y003383D02*
X002600Y009633D01*
X003100Y009883D01*
X003100Y010383D01*
X002850Y010633D01*
X002100Y010883D02*
X002100Y005383D01*
X001850Y005133D01*
X001350Y005133D01*
X001850Y004133D02*
X002350Y004633D01*
X002350Y009883D01*
X002600Y010133D01*
X003600Y011383D02*
X003600Y001133D01*
X001350Y002133D02*
X000850Y002133D01*
X000600Y002383D01*
X000600Y012883D01*
X000850Y013133D01*
X001350Y013133D01*
X003350Y012133D02*
X003350Y011633D01*
X003600Y011383D01*
X005100Y008633D02*
X006850Y008633D01*
X007350Y008133D01*
X010350Y009133D02*
X010850Y008633D01*
X010850Y003633D01*
X010350Y003133D01*
X009350Y003133D01*
X012350Y003633D02*
X012350Y008133D01*
X016350Y007133D02*
X016350Y003633D01*
X016850Y003133D01*
X017350Y003133D01*
X020350Y003633D02*
X020350Y006633D01*
X024350Y006133D02*
X024350Y003633D01*
X024850Y003133D01*
X025350Y003133D01*
X028350Y003633D02*
X028850Y003133D01*
X029350Y003133D01*
X028350Y003633D02*
X028350Y005633D01*
X021350Y003133D02*
X020850Y003133D01*
X020350Y003633D01*
X013350Y003133D02*
X012850Y003133D01*
X012350Y003633D01*
X008100Y006383D02*
X008100Y016383D01*
X007850Y016633D01*
X003100Y016633D01*
X002850Y016383D01*
X002850Y015633D01*
X001850Y004133D02*
X001350Y004133D01*
X002350Y003133D02*
X002600Y003383D01*
X002350Y003133D02*
X001350Y003133D01*
D17*
X003100Y003633D03*
X005850Y001133D03*
X005600Y000633D03*
X008100Y006383D03*
X012350Y008133D03*
X010350Y009133D03*
X005100Y008633D03*
X002600Y010133D03*
X002850Y010633D03*
X002100Y010883D03*
X001350Y013133D03*
X000600Y016383D03*
X016350Y007133D03*
X020350Y006633D03*
X024350Y006133D03*
X028350Y005633D03*
D18*
X005850Y001133D02*
X005600Y001633D01*
X005600Y002633D01*
X005100Y003133D01*
X004350Y003133D01*
X004350Y002133D02*
X005350Y002133D01*
X005350Y001133D01*
X005350Y000883D01*
X005600Y000633D01*
X004350Y001133D02*
X003600Y001133D01*
D19*
X021350Y010133D02*
X021350Y012133D01*
X032350Y012133D01*
X032350Y011633D01*
X034350Y011633D01*
X034350Y010633D02*
X031350Y010633D01*
X031350Y011133D01*
X025350Y011133D01*
X025350Y010133D01*
X029350Y010133D02*
X029350Y009633D01*
X034350Y009633D01*
M02*
